# xmcd
#
# Track frame offsets: 
#        183
#        10575
#        21193
#        33290
#        45713
#        58518
#        70913
#        82303
#        94960
#        104785
#        116700
#        126575
#        136200
#        146058
#        157160
#        170448
#        181123
#        194333
#        203763
#        215033
#        226608
#        239478
#        248503
#        258640
#        270053
#        278638
#        292118
#        302400
#        312945
#        321030
#
# Disc length: 4488 seconds
#
# Revision: 7
# Processed by: cddbd v1.5.2PL0 Copyright (c) Steve Scherf et al.
# Submitted via: ExactAudioCopy v0.99pb5
#
DISCID=b911861e
DTITLE=Nat  King  Cole - 30  Grandes  Exitos  En  Español
DYEAR=1990
DGENRE=Charts Oldies
TTITLE0=Perfidia
TTITLE1=Yo vendo unos ojos negros
TTITLE2=María Elena
TTITLE3=Sólamente una vez
TTITLE4=Cachito
TTITLE5=Quizás, quizás, quizás
TTITLE6=Noche de ronda
TTITLE7=Acércate más
TTITLE8=El Choclo
TTITLE9=Te quiero, dijiste
TTITLE10=Aquellos ojos verdes
TTITLE11=Adelita
TTITLE12=Piel canela
TTITLE13=Capullito de alelí
TTITLE14=La Golondrina
TTITLE15=El bodeguero
TTITLE16=Las mañanitas
TTITLE17=Tres palabras
TTITLE18=Vaya con Dios
TTITLE19=Las Chiapanecas
TTITLE20=Adiós Mariquita linda
TTITLE21=Guadalajara
TTITLE22=Ay, cosita linda
TTITLE23=Nadie me ama
TTITLE24=Fantástico
TTITLE25=No me platiques
TTITLE26=Näo tenho lágrimas
TTITLE27=Suas Mäos
TTITLE28=La feria de las flores
TTITLE29=Ansiedad
EXTD=
EXTT0=
EXTT1=
EXTT2=
EXTT3=
EXTT4=
EXTT5=
EXTT6=
EXTT7=
EXTT8=
EXTT9=
EXTT10=
EXTT11=
EXTT12=
EXTT13=
EXTT14=
EXTT15=
EXTT16=
EXTT17=
EXTT18=
EXTT19=
EXTT20=
EXTT21=
EXTT22=
EXTT23=
EXTT24=
EXTT25=
EXTT26=
EXTT27=
EXTT28=
EXTT29=
PLAYORDER=
